<mxfile host="Electron" modified="2024-04-15T08:00:34.266Z" agent="Mozilla/5.0 (X11; Linux x86_64) AppleWebKit/537.36 (KHTML, like Gecko) draw.io/24.2.5 Chrome/120.0.6099.291 Electron/28.2.5 Safari/537.36" etag="kvlcewnaNaOEgZVZpzK5" version="24.2.5" type="device">
  <diagram name="第 1 页" id="nhB9vg58zwiiHwahVEVZ">
    <mxGraphModel dx="2074" dy="1239" grid="1" gridSize="10" guides="1" tooltips="1" connect="1" arrows="1" fold="1" page="1" pageScale="1" pageWidth="827" pageHeight="1169" math="0" shadow="0">
      <root>
        <mxCell id="0" />
        <mxCell id="1" parent="0" />
        <mxCell id="Uc9ylW25rm6URHwA_mru-2" value="C code" style="swimlane;whiteSpace=wrap;html=1;" parent="1" vertex="1">
          <mxGeometry x="508.5" y="110" width="393" height="240" as="geometry" />
        </mxCell>
        <mxCell id="Uc9ylW25rm6URHwA_mru-4" value="&lt;div style=&quot;font-family: &amp;quot;Droid Sans Mono&amp;quot;, &amp;quot;monospace&amp;quot;, monospace; font-size: 14px; line-height: 19px; white-space-collapse: preserve;&quot;&gt;&lt;div style=&quot;&quot;&gt;&lt;font style=&quot;&quot; color=&quot;#3333ff&quot;&gt;void&lt;/font&gt;&lt;font style=&quot;&quot; color=&quot;#dadada&quot;&gt; &lt;/font&gt;&lt;font style=&quot;&quot; color=&quot;#ff0080&quot;&gt;func&lt;/font&gt;(&lt;font style=&quot;&quot; color=&quot;#3333ff&quot;&gt;int&lt;/font&gt;&lt;font style=&quot;&quot; color=&quot;#dadada&quot;&gt; &lt;/font&gt;&lt;font style=&quot;&quot; color=&quot;#9933ff&quot;&gt;i&lt;/font&gt;)&lt;/div&gt;&lt;div style=&quot;&quot;&gt;{&lt;/div&gt;&lt;div style=&quot;&quot;&gt;&lt;font color=&quot;#dadada&quot;&gt;    &lt;/font&gt;...&lt;/div&gt;&lt;div style=&quot;&quot;&gt;&lt;font style=&quot;&quot; color=&quot;#dadada&quot;&gt;    &lt;/font&gt;&lt;font style=&quot;&quot; color=&quot;#ff3399&quot;&gt;begine_run_loop&lt;/font&gt;(&quot;&lt;font color=&quot;#c75b57&quot;&gt;loop_func_1&lt;/font&gt;&quot;,&lt;font style=&quot;&quot; color=&quot;#dadada&quot;&gt; &lt;/font&gt;&lt;font style=&quot;&quot; color=&quot;#9933ff&quot;&gt;1000&lt;/font&gt;,&lt;font style=&quot;&quot; color=&quot;#dadada&quot;&gt; &lt;/font&gt;&lt;font style=&quot;&quot; color=&quot;#9933ff&quot;&gt;i&lt;/font&gt;);&lt;/div&gt;&lt;div style=&quot;&quot;&gt;&lt;font color=&quot;#dadada&quot;&gt;    &lt;/font&gt;stmt_1;&lt;/div&gt;&lt;div style=&quot;&quot;&gt;    stmt_2;&lt;/div&gt;&lt;div style=&quot;&quot;&gt;    stmt_3;&lt;/div&gt;&lt;div style=&quot;&quot;&gt;&lt;font color=&quot;#dadada&quot;&gt;    &lt;/font&gt;&lt;font color=&quot;#ff0080&quot;&gt;end_run_loop&lt;/font&gt;(&quot;&lt;font color=&quot;#c75b57&quot;&gt;loop_func_1&lt;/font&gt;&quot;);&lt;/div&gt;&lt;div style=&quot;&quot;&gt;&lt;font style=&quot;&quot; color=&quot;#dadada&quot;&gt;    &lt;/font&gt;...&lt;/div&gt;&lt;div style=&quot;&quot;&gt;}&lt;/div&gt;&lt;/div&gt;" style="text;html=1;align=left;verticalAlign=middle;resizable=0;points=[];autosize=1;strokeColor=none;fillColor=none;" parent="Uc9ylW25rm6URHwA_mru-2" vertex="1">
          <mxGeometry y="30" width="390" height="200" as="geometry" />
        </mxCell>
        <mxCell id="Uc9ylW25rm6URHwA_mru-5" value="Compiler" style="label;whiteSpace=wrap;html=1;image=img/clipart/Gear_128x128.png" parent="1" vertex="1">
          <mxGeometry x="1270" y="567" width="140" height="60" as="geometry" />
        </mxCell>
        <mxCell id="Uc9ylW25rm6URHwA_mru-6" value="" style="shape=flexArrow;endArrow=classic;html=1;rounded=0;fillColor=#dae8fc;strokeColor=#6c8ebf;entryX=0.5;entryY=0;entryDx=0;entryDy=0;exitX=0.5;exitY=1;exitDx=0;exitDy=0;" parent="1" source="Uc9ylW25rm6URHwA_mru-2" target="Uc9ylW25rm6URHwA_mru-24" edge="1">
          <mxGeometry width="50" height="50" relative="1" as="geometry">
            <mxPoint x="750" y="390" as="sourcePoint" />
            <mxPoint x="690" y="440" as="targetPoint" />
          </mxGeometry>
        </mxCell>
        <mxCell id="Uc9ylW25rm6URHwA_mru-27" value="clang" style="edgeLabel;html=1;align=center;verticalAlign=middle;resizable=0;points=[];" parent="Uc9ylW25rm6URHwA_mru-6" vertex="1" connectable="0">
          <mxGeometry x="-0.2435" y="1" relative="1" as="geometry">
            <mxPoint as="offset" />
          </mxGeometry>
        </mxCell>
        <mxCell id="Uc9ylW25rm6URHwA_mru-7" value="host assembly" style="swimlane;whiteSpace=wrap;html=1;" parent="1" vertex="1">
          <mxGeometry x="1490" y="380" width="290" height="210" as="geometry" />
        </mxCell>
        <mxCell id="Uc9ylW25rm6URHwA_mru-8" value="&lt;div style=&quot;font-family: &amp;quot;Droid Sans Mono&amp;quot;, &amp;quot;monospace&amp;quot;, monospace; font-size: 14px; line-height: 19px; white-space-collapse: preserve;&quot;&gt;&lt;div style=&quot;&quot;&gt;&lt;font style=&quot;&quot; color=&quot;#ff0080&quot;&gt;func:&lt;/font&gt;&lt;/div&gt;&lt;div style=&quot;&quot;&gt;&lt;font color=&quot;#dadada&quot;&gt;    &lt;/font&gt;&lt;font color=&quot;#009900&quot;&gt;mov &lt;/font&gt;&lt;font color=&quot;#ff0080&quot;&gt;ebp&lt;/font&gt;,&lt;font color=&quot;#009900&quot;&gt; &lt;/font&gt;&lt;span style=&quot;color: rgb(51, 51, 255); background-color: initial;&quot;&gt;fun_name;&lt;/span&gt;&lt;/div&gt;&lt;div style=&quot;&quot;&gt;&lt;span style=&quot;color: rgb(51, 51, 255); background-color: initial;&quot;&gt;    &lt;/span&gt;&lt;font style=&quot;background-color: initial;&quot; color=&quot;#009900&quot;&gt;mov &lt;/font&gt;&lt;font style=&quot;background-color: initial;&quot; color=&quot;#ff0080&quot;&gt;esp&lt;/font&gt;,&lt;font style=&quot;background-color: initial;&quot; color=&quot;#009900&quot;&gt; &lt;/font&gt;&lt;span style=&quot;background-color: initial; color: rgb(51, 51, 255);&quot;&gt;file_name;&lt;/span&gt;&lt;/div&gt;&lt;div style=&quot;&quot;&gt;&lt;font style=&quot;&quot; color=&quot;#dadada&quot;&gt;    &lt;/font&gt;&lt;font color=&quot;#009900&quot;&gt;call&lt;/font&gt;&lt;font style=&quot;&quot; color=&quot;#dadada&quot;&gt; &lt;/font&gt;&lt;font style=&quot;&quot; color=&quot;#ff3399&quot;&gt;npu_run&lt;/font&gt;&lt;span style=&quot;background-color: initial;&quot;&gt;;   //sys func&lt;/span&gt;&lt;/div&gt;&lt;div style=&quot;&quot;&gt;&lt;font style=&quot;&quot; color=&quot;#dadada&quot;&gt;    &lt;/font&gt;...&lt;/div&gt;&lt;div style=&quot;&quot;&gt;&lt;br&gt;&lt;/div&gt;&lt;div style=&quot;&quot;&gt;&lt;div style=&quot;line-height: 19px;&quot;&gt;&lt;font color=&quot;#3333ff&quot;&gt;fun_name&lt;/font&gt;:&lt;font color=&quot;#dadada&quot;&gt; &lt;/font&gt;&lt;font color=&quot;#009900&quot;&gt;db&lt;/font&gt;&lt;font color=&quot;#dadada&quot;&gt; &lt;/font&gt;&#39;&lt;font color=&quot;#c75b57&quot;&gt;loop_func_1&lt;/font&gt;&#39;, &lt;font color=&quot;#3333ff&quot;&gt;0&lt;/font&gt;&lt;/div&gt;&lt;div style=&quot;line-height: 19px;&quot;&gt;&lt;font color=&quot;#3333ff&quot;&gt;file_name&lt;/font&gt;:&lt;font color=&quot;#dadada&quot;&gt; &lt;/font&gt;&lt;font color=&quot;#009900&quot;&gt;db&lt;/font&gt;&lt;font color=&quot;#dadada&quot;&gt; &lt;/font&gt;&#39;&lt;font color=&quot;#c75b57&quot;&gt;loop_lib.so&lt;/font&gt;&#39;, &lt;font color=&quot;#3333ff&quot;&gt;0&lt;/font&gt;&lt;font color=&quot;#3333ff&quot;&gt;&lt;br&gt;&lt;/font&gt;&lt;/div&gt;&lt;/div&gt;&lt;/div&gt;" style="text;html=1;align=left;verticalAlign=middle;resizable=0;points=[];autosize=1;strokeColor=none;fillColor=none;" parent="Uc9ylW25rm6URHwA_mru-7" vertex="1">
          <mxGeometry x="5" y="26" width="280" height="170" as="geometry" />
        </mxCell>
        <mxCell id="Uc9ylW25rm6URHwA_mru-9" value="slave assembly" style="swimlane;whiteSpace=wrap;html=1;" parent="1" vertex="1">
          <mxGeometry x="1508.13" y="615" width="253.75" height="170" as="geometry" />
        </mxCell>
        <mxCell id="Uc9ylW25rm6URHwA_mru-10" value="&lt;div style=&quot;font-family: &amp;quot;Droid Sans Mono&amp;quot;, &amp;quot;monospace&amp;quot;, monospace; font-size: 14px; line-height: 19px; white-space-collapse: preserve;&quot;&gt;&lt;div style=&quot;&quot;&gt;&lt;span style=&quot;color: rgb(255, 0, 128);&quot;&gt;loop_func_1:&lt;/span&gt;&lt;/div&gt;&lt;div style=&quot;&quot;&gt;&lt;font color=&quot;#dadada&quot;&gt;    &lt;/font&gt;&lt;font style=&quot;background-color: initial;&quot; color=&quot;#009900&quot;&gt;lp.setup(&lt;/font&gt;&lt;span style=&quot;color: rgb(51, 51, 255);&quot;&gt;0&lt;/span&gt;,&lt;font style=&quot;background-color: initial;&quot; color=&quot;#009900&quot;&gt; &lt;/font&gt;&lt;span style=&quot;color: rgb(51, 51, 255);&quot;&gt;1000&lt;/span&gt;, &lt;span style=&quot;color: rgb(51, 51, 255);&quot;&gt;1&lt;/span&gt;&lt;font style=&quot;background-color: initial;&quot; color=&quot;#009900&quot;&gt;)&lt;/font&gt;&lt;span style=&quot;background-color: initial;&quot;&gt;;&lt;/span&gt;&lt;/div&gt;&lt;div style=&quot;&quot;&gt;    stmt_1_asm;&lt;/div&gt;&lt;div style=&quot;&quot;&gt;    stmt_2_asm;&lt;/div&gt;&lt;div style=&quot;&quot;&gt;    stmt_3_asm;&lt;/div&gt;&lt;div style=&quot;&quot;&gt;&lt;span style=&quot;color: rgb(0, 153, 0);&quot;&gt;    ret&lt;/span&gt;&lt;span style=&quot;background-color: initial;&quot;&gt;;&lt;/span&gt;&lt;/div&gt;&lt;/div&gt;" style="text;html=1;align=left;verticalAlign=middle;resizable=0;points=[];autosize=1;strokeColor=none;fillColor=none;" parent="Uc9ylW25rm6URHwA_mru-9" vertex="1">
          <mxGeometry x="11.88" y="31" width="230" height="130" as="geometry" />
        </mxCell>
        <mxCell id="Uc9ylW25rm6URHwA_mru-11" value="" style="shape=flexArrow;endArrow=classic;html=1;rounded=0;fillColor=#dae8fc;strokeColor=#6c8ebf;entryX=0;entryY=0.5;entryDx=0;entryDy=0;exitX=1;exitY=0;exitDx=0;exitDy=0;" parent="1" source="Uc9ylW25rm6URHwA_mru-5" target="Uc9ylW25rm6URHwA_mru-7" edge="1">
          <mxGeometry width="50" height="50" relative="1" as="geometry">
            <mxPoint x="1440" y="570" as="sourcePoint" />
            <mxPoint x="1490" y="460" as="targetPoint" />
          </mxGeometry>
        </mxCell>
        <mxCell id="Uc9ylW25rm6URHwA_mru-12" value="" style="shape=flexArrow;endArrow=classic;html=1;rounded=0;exitX=1;exitY=1;exitDx=0;exitDy=0;fillColor=#dae8fc;strokeColor=#6c8ebf;entryX=0;entryY=0.5;entryDx=0;entryDy=0;" parent="1" source="Uc9ylW25rm6URHwA_mru-5" target="Uc9ylW25rm6URHwA_mru-9" edge="1">
          <mxGeometry width="50" height="50" relative="1" as="geometry">
            <mxPoint x="1230" y="607" as="sourcePoint" />
            <mxPoint x="1600" y="720" as="targetPoint" />
          </mxGeometry>
        </mxCell>
        <mxCell id="Uc9ylW25rm6URHwA_mru-14" value="main.out" style="shape=cylinder3;whiteSpace=wrap;html=1;boundedLbl=1;backgroundOutline=1;size=15;" parent="1" vertex="1">
          <mxGeometry x="1934" y="445" width="60" height="80" as="geometry" />
        </mxCell>
        <mxCell id="Uc9ylW25rm6URHwA_mru-15" value="loop_lib.so" style="shape=cylinder3;whiteSpace=wrap;html=1;boundedLbl=1;backgroundOutline=1;size=15;" parent="1" vertex="1">
          <mxGeometry x="1934" y="660" width="60" height="80" as="geometry" />
        </mxCell>
        <mxCell id="Uc9ylW25rm6URHwA_mru-16" value="" style="shape=flexArrow;endArrow=classic;html=1;rounded=0;fillColor=#dae8fc;strokeColor=#6c8ebf;entryX=0;entryY=0.5;entryDx=0;entryDy=0;entryPerimeter=0;exitX=1;exitY=0.5;exitDx=0;exitDy=0;" parent="1" source="Uc9ylW25rm6URHwA_mru-9" target="Uc9ylW25rm6URHwA_mru-15" edge="1">
          <mxGeometry width="50" height="50" relative="1" as="geometry">
            <mxPoint x="1734" y="700" as="sourcePoint" />
            <mxPoint x="1559" y="720" as="targetPoint" />
          </mxGeometry>
        </mxCell>
        <mxCell id="Uc9ylW25rm6URHwA_mru-17" value="llc" style="edgeLabel;html=1;align=center;verticalAlign=middle;resizable=0;points=[];" parent="Uc9ylW25rm6URHwA_mru-16" vertex="1" connectable="0">
          <mxGeometry x="-0.1154" relative="1" as="geometry">
            <mxPoint as="offset" />
          </mxGeometry>
        </mxCell>
        <mxCell id="Uc9ylW25rm6URHwA_mru-18" value="" style="shape=flexArrow;endArrow=classic;html=1;rounded=0;fillColor=#dae8fc;strokeColor=#6c8ebf;entryX=0;entryY=0.5;entryDx=0;entryDy=0;entryPerimeter=0;exitX=1;exitY=0.5;exitDx=0;exitDy=0;" parent="1" source="Uc9ylW25rm6URHwA_mru-7" target="Uc9ylW25rm6URHwA_mru-14" edge="1">
          <mxGeometry width="50" height="50" relative="1" as="geometry">
            <mxPoint x="1784" y="490" as="sourcePoint" />
            <mxPoint x="1944" y="710" as="targetPoint" />
          </mxGeometry>
        </mxCell>
        <mxCell id="Uc9ylW25rm6URHwA_mru-19" value="llc" style="edgeLabel;html=1;align=center;verticalAlign=middle;resizable=0;points=[];" parent="Uc9ylW25rm6URHwA_mru-18" vertex="1" connectable="0">
          <mxGeometry x="-0.1154" relative="1" as="geometry">
            <mxPoint as="offset" />
          </mxGeometry>
        </mxCell>
        <mxCell id="Uc9ylW25rm6URHwA_mru-20" value="&lt;span style=&quot;text-wrap: wrap;&quot;&gt;Exec File&lt;/span&gt;" style="text;html=1;align=center;verticalAlign=middle;resizable=0;points=[];autosize=1;strokeColor=none;fillColor=none;" parent="1" vertex="1">
          <mxGeometry x="1929" y="400" width="70" height="30" as="geometry" />
        </mxCell>
        <mxCell id="Uc9ylW25rm6URHwA_mru-21" value="&lt;span style=&quot;text-wrap: wrap;&quot;&gt;Dynamic Link Lib&lt;/span&gt;" style="text;html=1;align=center;verticalAlign=middle;resizable=0;points=[];autosize=1;strokeColor=none;fillColor=none;" parent="1" vertex="1">
          <mxGeometry x="1909" y="620" width="110" height="30" as="geometry" />
        </mxCell>
        <mxCell id="Uc9ylW25rm6URHwA_mru-22" value="C code for `npu_run`" style="swimlane;whiteSpace=wrap;html=1;" parent="1" vertex="1">
          <mxGeometry x="1130" y="880" width="510" height="190" as="geometry" />
        </mxCell>
        <mxCell id="Uc9ylW25rm6URHwA_mru-23" value="&lt;div style=&quot;font-family: &amp;quot;Droid Sans Mono&amp;quot;, &amp;quot;monospace&amp;quot;, monospace; font-size: 14px; line-height: 19px; white-space-collapse: preserve;&quot;&gt;&lt;div style=&quot;&quot;&gt;&lt;font style=&quot;background-color: initial;&quot; color=&quot;#3333ff&quot;&gt;void&lt;/font&gt;&lt;span style=&quot;background-color: initial;&quot;&gt;* &lt;/span&gt;&lt;span style=&quot;background-color: initial; color: rgb(153, 51, 255);&quot;&gt;func_st&lt;/span&gt;&lt;span style=&quot;background-color: initial;&quot;&gt;;&lt;/span&gt;&lt;br&gt;&lt;/div&gt;&lt;div style=&quot;&quot;&gt;&lt;span style=&quot;color: rgb(51, 51, 255);&quot;&gt;int &lt;/span&gt;&lt;span style=&quot;color: rgb(153, 51, 255); background-color: initial;&quot;&gt;size&lt;/span&gt;&lt;span style=&quot;background-color: initial;&quot;&gt;;&lt;/span&gt;&lt;span style=&quot;background-color: initial;&quot;&gt;&lt;br&gt;&lt;/span&gt;&lt;/div&gt;&lt;div style=&quot;&quot;&gt;&lt;font style=&quot;&quot; color=&quot;#3333ff&quot;&gt;void&lt;/font&gt;&lt;font style=&quot;&quot; color=&quot;#dadada&quot;&gt; &lt;/font&gt;&lt;span style=&quot;color: rgb(255, 51, 153);&quot;&gt;npu_run&lt;/span&gt;(&lt;font style=&quot;&quot; color=&quot;#3333ff&quot;&gt;char&lt;/font&gt;*&lt;font style=&quot;&quot; color=&quot;#dadada&quot;&gt; &lt;/font&gt;&lt;font color=&quot;#9933ff&quot;&gt;func_name&lt;/font&gt;,&lt;font color=&quot;#9933ff&quot;&gt; &lt;/font&gt;&lt;font style=&quot;background-color: initial;&quot; color=&quot;#3333ff&quot;&gt;char&lt;/font&gt;&lt;span style=&quot;background-color: initial;&quot;&gt;*&lt;/span&gt;&lt;font style=&quot;background-color: initial;&quot; color=&quot;#dadada&quot;&gt; &lt;/font&gt;&lt;font style=&quot;background-color: initial;&quot; color=&quot;#9933ff&quot;&gt;file_name&lt;/font&gt;&lt;span style=&quot;background-color: initial;&quot;&gt;)&lt;/span&gt;&lt;/div&gt;&lt;div style=&quot;&quot;&gt;{&lt;/div&gt;&lt;div style=&quot;&quot;&gt;&lt;span style=&quot;color: rgb(153, 51, 255); background-color: initial;&quot;&gt;    func_st &lt;/span&gt;&lt;span style=&quot;background-color: initial;&quot;&gt;= &lt;/span&gt;&lt;span style=&quot;color: rgb(255, 51, 153); background-color: initial;&quot;&gt;get_func_st_sz&lt;/span&gt;&lt;span style=&quot;background-color: initial;&quot;&gt;(&lt;/span&gt;&lt;font style=&quot;background-color: initial;&quot; color=&quot;#9933ff&quot;&gt;func_name&lt;/font&gt;,&lt;font style=&quot;background-color: initial;&quot; color=&quot;#9933ff&quot;&gt; &lt;/font&gt;&lt;span style=&quot;color: rgb(153, 51, 255); background-color: initial;&quot;&gt;file_name&lt;/span&gt;&lt;span style=&quot;background-color: initial;&quot;&gt;, &lt;/span&gt;&lt;span style=&quot;background-color: initial;&quot;&gt;&amp;amp;&lt;/span&gt;&lt;span style=&quot;background-color: initial; color: rgb(153, 51, 255);&quot;&gt;size&lt;/span&gt;&lt;span style=&quot;background-color: initial;&quot;&gt;);&lt;/span&gt;&lt;/div&gt;&lt;div style=&quot;&quot;&gt;&lt;span style=&quot;color: rgb(255, 51, 153);&quot;&gt;    pass_to_npu_and_run&lt;/span&gt;&lt;span style=&quot;background-color: initial;&quot;&gt;(&lt;/span&gt;&lt;span style=&quot;color: rgb(153, 51, 255);&quot;&gt;func_st&lt;/span&gt;,&lt;font style=&quot;background-color: initial;&quot; color=&quot;#9933ff&quot;&gt; &lt;/font&gt;&lt;span style=&quot;background-color: initial; color: rgb(153, 51, 255);&quot;&gt;size&lt;/span&gt;&lt;span style=&quot;background-color: initial;&quot;&gt;);&lt;/span&gt;&lt;span style=&quot;background-color: initial;&quot;&gt;&lt;br&gt;&lt;/span&gt;&lt;/div&gt;&lt;div style=&quot;&quot;&gt;&lt;span style=&quot;background-color: initial;&quot;&gt;}&lt;/span&gt;&lt;/div&gt;&lt;/div&gt;" style="text;html=1;align=left;verticalAlign=middle;resizable=0;points=[];autosize=1;strokeColor=none;fillColor=none;" parent="Uc9ylW25rm6URHwA_mru-22" vertex="1">
          <mxGeometry y="32" width="510" height="150" as="geometry" />
        </mxCell>
        <mxCell id="Uc9ylW25rm6URHwA_mru-24" value="llvm ir" style="swimlane;whiteSpace=wrap;html=1;" parent="1" vertex="1">
          <mxGeometry x="280" y="482" width="850" height="230" as="geometry" />
        </mxCell>
        <mxCell id="Uc9ylW25rm6URHwA_mru-25" value="&lt;div style=&quot;font-family: &amp;quot;Droid Sans Mono&amp;quot;, &amp;quot;monospace&amp;quot;, monospace; font-size: 14px; line-height: 19px; white-space-collapse: preserve;&quot;&gt;&lt;div style=&quot;&quot;&gt;&lt;div style=&quot;line-height: 19px;&quot;&gt;&lt;div style=&quot;&quot;&gt;&lt;span style=&quot;color: rgb(86, 156, 214);&quot;&gt;define&lt;/span&gt;&lt;font color=&quot;#dadada&quot;&gt; &lt;/font&gt;dso_local&lt;font color=&quot;#dadada&quot;&gt; &lt;/font&gt;&lt;span style=&quot;color: rgb(86, 156, 214);&quot;&gt;void&lt;/span&gt;&lt;font color=&quot;#dadada&quot;&gt; &lt;/font&gt;&lt;span style=&quot;color: rgb(86, 156, 214);&quot;&gt;@func&lt;/span&gt;(&lt;span style=&quot;color: rgb(86, 156, 214);&quot;&gt;i32&lt;/span&gt;&lt;font color=&quot;#dadada&quot;&gt; &lt;/font&gt;noundef&lt;font color=&quot;#dadada&quot;&gt; &lt;/font&gt;&lt;span style=&quot;color: rgb(86, 156, 214);&quot;&gt;%0&lt;/span&gt;)&lt;font color=&quot;#dadada&quot;&gt; &lt;/font&gt;&lt;span style=&quot;color: rgb(86, 156, 214);&quot;&gt;local_unnamed_addr&lt;/span&gt;&lt;font color=&quot;#dadada&quot;&gt; &lt;/font&gt;#0 {&lt;/div&gt;&lt;div style=&quot;&quot;&gt;  ...&lt;/div&gt;&lt;div style=&quot;&quot;&gt;&lt;font color=&quot;#dadada&quot;&gt;  &lt;/font&gt;&lt;span style=&quot;color: rgb(86, 156, 214);&quot;&gt;tail&lt;/span&gt;&lt;font color=&quot;#dadada&quot;&gt; &lt;/font&gt;&lt;span style=&quot;color: rgb(86, 156, 214);&quot;&gt;call&lt;/span&gt;&lt;font color=&quot;#dadada&quot;&gt; &lt;/font&gt;&lt;span style=&quot;color: rgb(86, 156, 214);&quot;&gt;void&lt;/span&gt;&lt;font color=&quot;#dadada&quot;&gt; &lt;/font&gt;&lt;span style=&quot;color: rgb(86, 156, 214);&quot;&gt;@begine_run_loop&lt;/span&gt;(&lt;span style=&quot;color: rgb(86, 156, 214);&quot;&gt;ptr&lt;/span&gt;&lt;font color=&quot;#dadada&quot;&gt; &lt;/font&gt;noundef&lt;font color=&quot;#dadada&quot;&gt; &lt;/font&gt;&lt;span style=&quot;color: rgb(86, 156, 214);&quot;&gt;nonnull&lt;/span&gt;&lt;font color=&quot;#dadada&quot;&gt; &lt;/font&gt;&lt;span style=&quot;color: rgb(86, 156, 214);&quot;&gt;@.str&lt;/span&gt;,&lt;font color=&quot;#dadada&quot;&gt; &lt;/font&gt;&lt;span style=&quot;color: rgb(86, 156, 214);&quot;&gt;i32&lt;/span&gt; noundef 1000,&lt;font color=&quot;#dadada&quot;&gt; &lt;/font&gt;&lt;span style=&quot;color: rgb(86, 156, 214);&quot;&gt;i32&lt;/span&gt;&lt;font color=&quot;#dadada&quot;&gt; &lt;/font&gt;noundef&lt;font color=&quot;#dadada&quot;&gt; &lt;/font&gt;&lt;span style=&quot;color: rgb(86, 156, 214);&quot;&gt;%0&lt;/span&gt;) #2&lt;/div&gt;&lt;div style=&quot;&quot;&gt;&lt;font color=&quot;#dadada&quot;&gt;  &lt;/font&gt;&lt;span style=&quot;background-color: initial;&quot;&gt;stmt_1_ll&lt;/span&gt;&lt;/div&gt;&lt;div style=&quot;&quot;&gt;&lt;span style=&quot;background-color: initial;&quot;&gt;  stmt_2_ll&lt;/span&gt;&lt;/div&gt;&lt;div style=&quot;&quot;&gt;&lt;span style=&quot;background-color: initial;&quot;&gt;  stmt_3_ll&lt;/span&gt;&lt;/div&gt;&lt;div style=&quot;&quot;&gt;&lt;span style=&quot;color: rgb(86, 156, 214);&quot;&gt;  tail&lt;/span&gt;&lt;font color=&quot;#dadada&quot;&gt; &lt;/font&gt;&lt;span style=&quot;color: rgb(86, 156, 214);&quot;&gt;call&lt;/span&gt;&lt;font color=&quot;#dadada&quot;&gt; &lt;/font&gt;&lt;span style=&quot;color: rgb(86, 156, 214);&quot;&gt;void&lt;/span&gt;&lt;font color=&quot;#dadada&quot;&gt; &lt;/font&gt;&lt;span style=&quot;color: rgb(86, 156, 214);&quot;&gt;@end_run_loop&lt;/span&gt;(&lt;span style=&quot;color: rgb(86, 156, 214);&quot;&gt;ptr&lt;/span&gt;&lt;font color=&quot;#dadada&quot;&gt; &lt;/font&gt;noundef&lt;font color=&quot;#dadada&quot;&gt; &lt;/font&gt;&lt;span style=&quot;color: rgb(86, 156, 214);&quot;&gt;nonnull&lt;/span&gt;&lt;font color=&quot;#dadada&quot;&gt; &lt;/font&gt;&lt;span style=&quot;color: rgb(86, 156, 214);&quot;&gt;@.str&lt;/span&gt;) #2&lt;/div&gt;&lt;div style=&quot;&quot;&gt;  ...&lt;/div&gt;&lt;div style=&quot;color: rgb(218, 218, 218);&quot;&gt;  &lt;span style=&quot;color: #569cd6;&quot;&gt;ret&lt;/span&gt; &lt;span style=&quot;color: #569cd6;&quot;&gt;void&lt;/span&gt;&lt;/div&gt;&lt;div style=&quot;&quot;&gt;}&lt;/div&gt;&lt;/div&gt;&lt;/div&gt;&lt;/div&gt;" style="text;html=1;align=left;verticalAlign=middle;resizable=0;points=[];autosize=1;strokeColor=none;fillColor=none;" parent="Uc9ylW25rm6URHwA_mru-24" vertex="1">
          <mxGeometry y="30" width="840" height="200" as="geometry" />
        </mxCell>
        <mxCell id="Uc9ylW25rm6URHwA_mru-26" value="" style="shape=flexArrow;endArrow=classic;html=1;rounded=0;fillColor=#dae8fc;strokeColor=#6c8ebf;entryX=0;entryY=0.5;entryDx=0;entryDy=0;exitX=1;exitY=0.5;exitDx=0;exitDy=0;" parent="1" source="Uc9ylW25rm6URHwA_mru-24" target="Uc9ylW25rm6URHwA_mru-5" edge="1">
          <mxGeometry width="50" height="50" relative="1" as="geometry">
            <mxPoint x="1140" y="590" as="sourcePoint" />
            <mxPoint x="710" y="492" as="targetPoint" />
          </mxGeometry>
        </mxCell>
      </root>
    </mxGraphModel>
  </diagram>
</mxfile>
